# xmcd
# 
# Track frame offsets:
#     165
#     16174
#     36509
#     58372
#     78971
#     101920
#     115655
#     134761
#     152407
#     175114
# 
# Disc length: 2503
# 
# Revision: 20
# Processed by: cddbd v1.5.2PL0 Copyright (c) Steve Scherf et al.
# Submitted via: fre:ac v1.0.31
# 
DISCID=8109c50a
DTITLE=Michael Jackson - Michael
DYEAR=2010
DGENRE=Funk, Soul, Pop
TTITLE0=Hold My Hand  (Akon)
TTITLE1=Hollywood Tonight
TTITLE2=Keep Your Head Up
TTITLE3=(I Like) The Way You Love Me
TTITLE4=Monster  (50 Cent)
TTITLE5=Best Of Joy
TTITLE6=Breaking News
TTITLE7=(I Can't Make It) Another Day  (Lenny Kravitz)
TTITLE8=Behind The Mask
TTITLE9=Much Too Soon
EXTD=
EXTT0=
EXTT1=
EXTT2=
EXTT3=
EXTT4=
EXTT5=
EXTT6=
EXTT7=
EXTT8=
EXTT9=
PLAYORDER=
